<mxfile host="app.diagrams.net" agent="Mozilla/5.0 (Windows NT 10.0; Win64; x64) AppleWebKit/537.36 (KHTML, like Gecko) Chrome/134.0.0.0 Safari/537.36" version="24.8.3">
  <diagram name="1 oldal" id="PgSHcLmnsI0zRzaySbLW">
    <mxGraphModel dx="1493" dy="698" grid="0" gridSize="10" guides="0" tooltips="1" connect="1" arrows="1" fold="1" page="1" pageScale="1" pageWidth="827" pageHeight="1169" math="0" shadow="0">
      <root>
        <mxCell id="0" />
        <mxCell id="1" parent="0" />
        <mxCell id="oIZDwl6Zfv1O-Qm70mgF-1" value="Rovarász" style="shape=umlActor;verticalLabelPosition=bottom;verticalAlign=top;html=1;outlineConnect=0;" vertex="1" parent="1">
          <mxGeometry x="103" y="854" width="30" height="60" as="geometry" />
        </mxCell>
        <mxCell id="oIZDwl6Zfv1O-Qm70mgF-2" value="Gombász" style="shape=umlActor;verticalLabelPosition=bottom;verticalAlign=top;html=1;outlineConnect=0;" vertex="1" parent="1">
          <mxGeometry x="92" y="487" width="30" height="60" as="geometry" />
        </mxCell>
        <mxCell id="oIZDwl6Zfv1O-Qm70mgF-3" value="Game Logic" style="shape=umlActor;verticalLabelPosition=bottom;verticalAlign=top;html=1;outlineConnect=0;" vertex="1" parent="1">
          <mxGeometry x="732" y="644" width="30" height="60" as="geometry" />
        </mxCell>
        <mxCell id="oIZDwl6Zfv1O-Qm70mgF-4" value="Gombafonal növesztése" style="ellipse;whiteSpace=wrap;html=1;" vertex="1" parent="1">
          <mxGeometry x="203" y="390" width="164" height="50" as="geometry" />
        </mxCell>
        <mxCell id="oIZDwl6Zfv1O-Qm70mgF-5" value="Spóra kilövése" style="ellipse;whiteSpace=wrap;html=1;" vertex="1" parent="1">
          <mxGeometry x="249" y="443" width="149" height="44" as="geometry" />
        </mxCell>
        <mxCell id="oIZDwl6Zfv1O-Qm70mgF-6" value="Fonal vágása" style="ellipse;whiteSpace=wrap;html=1;" vertex="1" parent="1">
          <mxGeometry x="184" y="739" width="169" height="51" as="geometry" />
        </mxCell>
        <mxCell id="oIZDwl6Zfv1O-Qm70mgF-7" value="Tekton kettétörése" style="ellipse;whiteSpace=wrap;html=1;" vertex="1" parent="1">
          <mxGeometry x="496" y="530" width="210" height="49" as="geometry" />
        </mxCell>
        <mxCell id="oIZDwl6Zfv1O-Qm70mgF-8" value="Gomba növesztése,&amp;nbsp;&lt;br&gt;ahol még nincs gomaba" style="ellipse;whiteSpace=wrap;html=1;" vertex="1" parent="1">
          <mxGeometry x="254" y="490" width="198" height="50" as="geometry" />
        </mxCell>
        <mxCell id="oIZDwl6Zfv1O-Qm70mgF-9" value="Gomba növesztése,&lt;br&gt;ahol már van gomba" style="ellipse;whiteSpace=wrap;html=1;" vertex="1" parent="1">
          <mxGeometry x="280" y="545" width="160" height="49" as="geometry" />
        </mxCell>
        <mxCell id="oIZDwl6Zfv1O-Qm70mgF-10" value="Gomba növesztése&lt;br&gt;TektonGombatlan-on" style="ellipse;whiteSpace=wrap;html=1;" vertex="1" parent="1">
          <mxGeometry x="238" y="600" width="182" height="46" as="geometry" />
        </mxCell>
        <mxCell id="oIZDwl6Zfv1O-Qm70mgF-13" value="" style="endArrow=none;html=1;rounded=0;entryX=0;entryY=0;entryDx=0;entryDy=0;" edge="1" parent="1" target="oIZDwl6Zfv1O-Qm70mgF-10">
          <mxGeometry width="50" height="50" relative="1" as="geometry">
            <mxPoint x="130" y="543" as="sourcePoint" />
            <mxPoint x="191" y="591" as="targetPoint" />
          </mxGeometry>
        </mxCell>
        <mxCell id="oIZDwl6Zfv1O-Qm70mgF-14" value="" style="endArrow=none;html=1;rounded=0;entryX=0;entryY=0.5;entryDx=0;entryDy=0;" edge="1" parent="1" target="oIZDwl6Zfv1O-Qm70mgF-8">
          <mxGeometry width="50" height="50" relative="1" as="geometry">
            <mxPoint x="125" y="517" as="sourcePoint" />
            <mxPoint x="203" y="501" as="targetPoint" />
          </mxGeometry>
        </mxCell>
        <mxCell id="oIZDwl6Zfv1O-Qm70mgF-15" value="" style="endArrow=none;html=1;rounded=0;entryX=0;entryY=0.5;entryDx=0;entryDy=0;exitX=1;exitY=0.3333333333333333;exitDx=0;exitDy=0;exitPerimeter=0;" edge="1" parent="1" target="oIZDwl6Zfv1O-Qm70mgF-9">
          <mxGeometry width="50" height="50" relative="1" as="geometry">
            <mxPoint x="129" y="533" as="sourcePoint" />
            <mxPoint x="246" y="558" as="targetPoint" />
          </mxGeometry>
        </mxCell>
        <mxCell id="oIZDwl6Zfv1O-Qm70mgF-16" value="" style="endArrow=none;html=1;rounded=0;" edge="1" parent="1" target="oIZDwl6Zfv1O-Qm70mgF-5">
          <mxGeometry width="50" height="50" relative="1" as="geometry">
            <mxPoint x="128" y="505" as="sourcePoint" />
            <mxPoint x="185" y="424" as="targetPoint" />
          </mxGeometry>
        </mxCell>
        <mxCell id="oIZDwl6Zfv1O-Qm70mgF-17" value="" style="endArrow=none;html=1;rounded=0;entryX=0;entryY=0.5;entryDx=0;entryDy=0;" edge="1" parent="1" target="oIZDwl6Zfv1O-Qm70mgF-4">
          <mxGeometry width="50" height="50" relative="1" as="geometry">
            <mxPoint x="128" y="488" as="sourcePoint" />
            <mxPoint x="108" y="390" as="targetPoint" />
          </mxGeometry>
        </mxCell>
        <mxCell id="oIZDwl6Zfv1O-Qm70mgF-18" value="Rovar mozgás tektonon belül" style="ellipse;whiteSpace=wrap;html=1;" vertex="1" parent="1">
          <mxGeometry x="206" y="802" width="187" height="41" as="geometry" />
        </mxCell>
        <mxCell id="oIZDwl6Zfv1O-Qm70mgF-19" value="Rovar mozgás törésen át&lt;br&gt;fonal nélkül" style="ellipse;whiteSpace=wrap;html=1;" vertex="1" parent="1">
          <mxGeometry x="240" y="845" width="198" height="43" as="geometry" />
        </mxCell>
        <mxCell id="oIZDwl6Zfv1O-Qm70mgF-20" value="Rovar mozgás fonalon" style="ellipse;whiteSpace=wrap;html=1;" vertex="1" parent="1">
          <mxGeometry x="230" y="891" width="214" height="44" as="geometry" />
        </mxCell>
        <mxCell id="oIZDwl6Zfv1O-Qm70mgF-21" value="Rovar spóraevése" style="ellipse;whiteSpace=wrap;html=1;" vertex="1" parent="1">
          <mxGeometry x="212" y="947" width="198" height="51" as="geometry" />
        </mxCell>
        <mxCell id="oIZDwl6Zfv1O-Qm70mgF-22" value="" style="endArrow=none;html=1;rounded=0;entryX=0;entryY=1;entryDx=0;entryDy=0;" edge="1" parent="1" target="oIZDwl6Zfv1O-Qm70mgF-6">
          <mxGeometry width="50" height="50" relative="1" as="geometry">
            <mxPoint x="140" y="845" as="sourcePoint" />
            <mxPoint x="136" y="749" as="targetPoint" />
          </mxGeometry>
        </mxCell>
        <mxCell id="oIZDwl6Zfv1O-Qm70mgF-23" value="" style="endArrow=none;html=1;rounded=0;" edge="1" parent="1" target="oIZDwl6Zfv1O-Qm70mgF-18">
          <mxGeometry width="50" height="50" relative="1" as="geometry">
            <mxPoint x="148" y="874" as="sourcePoint" />
            <mxPoint x="148" y="766" as="targetPoint" />
          </mxGeometry>
        </mxCell>
        <mxCell id="oIZDwl6Zfv1O-Qm70mgF-24" value="" style="endArrow=none;html=1;rounded=0;entryX=0;entryY=0.5;entryDx=0;entryDy=0;" edge="1" parent="1" target="oIZDwl6Zfv1O-Qm70mgF-19">
          <mxGeometry width="50" height="50" relative="1" as="geometry">
            <mxPoint x="144" y="893" as="sourcePoint" />
            <mxPoint x="135" y="768" as="targetPoint" />
          </mxGeometry>
        </mxCell>
        <mxCell id="oIZDwl6Zfv1O-Qm70mgF-25" value="" style="endArrow=none;html=1;rounded=0;entryX=0;entryY=0.5;entryDx=0;entryDy=0;" edge="1" parent="1" target="oIZDwl6Zfv1O-Qm70mgF-20">
          <mxGeometry width="50" height="50" relative="1" as="geometry">
            <mxPoint x="148" y="907" as="sourcePoint" />
            <mxPoint x="172" y="751" as="targetPoint" />
          </mxGeometry>
        </mxCell>
        <mxCell id="oIZDwl6Zfv1O-Qm70mgF-26" value="" style="endArrow=none;html=1;rounded=0;entryX=0;entryY=0.5;entryDx=0;entryDy=0;" edge="1" parent="1" target="oIZDwl6Zfv1O-Qm70mgF-21">
          <mxGeometry width="50" height="50" relative="1" as="geometry">
            <mxPoint x="135" y="938" as="sourcePoint" />
            <mxPoint x="158" y="713" as="targetPoint" />
          </mxGeometry>
        </mxCell>
        <mxCell id="oIZDwl6Zfv1O-Qm70mgF-27" value="" style="endArrow=none;html=1;rounded=0;exitX=0.5;exitY=1;exitDx=0;exitDy=0;" edge="1" parent="1" source="oIZDwl6Zfv1O-Qm70mgF-7">
          <mxGeometry width="50" height="50" relative="1" as="geometry">
            <mxPoint x="550" y="760" as="sourcePoint" />
            <mxPoint x="722" y="632" as="targetPoint" />
          </mxGeometry>
        </mxCell>
        <mxCell id="oIZDwl6Zfv1O-Qm70mgF-28" value="TektonEgyFonalas ütközése&lt;br&gt;&amp;nbsp;második fonalnál" style="ellipse;whiteSpace=wrap;html=1;" vertex="1" parent="1">
          <mxGeometry x="216" y="651" width="196" height="43" as="geometry" />
        </mxCell>
        <mxCell id="oIZDwl6Zfv1O-Qm70mgF-29" value="" style="endArrow=none;html=1;rounded=0;entryX=0;entryY=0;entryDx=0;entryDy=0;" edge="1" parent="1" target="oIZDwl6Zfv1O-Qm70mgF-28">
          <mxGeometry width="50" height="50" relative="1" as="geometry">
            <mxPoint x="128" y="575" as="sourcePoint" />
            <mxPoint x="120" y="627" as="targetPoint" />
          </mxGeometry>
        </mxCell>
        <mxCell id="oIZDwl6Zfv1O-Qm70mgF-30" value="Gomba felszívódása&amp;nbsp;&lt;br&gt;TektonFelszivodoFonalas-on&amp;nbsp;" style="ellipse;whiteSpace=wrap;html=1;" vertex="1" parent="1">
          <mxGeometry x="429" y="598" width="225" height="57" as="geometry" />
        </mxCell>
        <mxCell id="oIZDwl6Zfv1O-Qm70mgF-31" value="" style="endArrow=none;html=1;rounded=0;exitX=0.5;exitY=1;exitDx=0;exitDy=0;" edge="1" parent="1" source="oIZDwl6Zfv1O-Qm70mgF-30">
          <mxGeometry width="50" height="50" relative="1" as="geometry">
            <mxPoint x="696" y="770" as="sourcePoint" />
            <mxPoint x="713" y="656" as="targetPoint" />
          </mxGeometry>
        </mxCell>
        <mxCell id="oIZDwl6Zfv1O-Qm70mgF-32" value="Gomba elhalása" style="ellipse;whiteSpace=wrap;html=1;" vertex="1" parent="1">
          <mxGeometry x="471" y="674" width="138" height="41" as="geometry" />
        </mxCell>
        <mxCell id="oIZDwl6Zfv1O-Qm70mgF-33" value="" style="endArrow=none;html=1;rounded=0;exitX=1;exitY=0.5;exitDx=0;exitDy=0;" edge="1" parent="1" source="oIZDwl6Zfv1O-Qm70mgF-32">
          <mxGeometry width="50" height="50" relative="1" as="geometry">
            <mxPoint x="583" y="839" as="sourcePoint" />
            <mxPoint x="706" y="692" as="targetPoint" />
          </mxGeometry>
        </mxCell>
      </root>
    </mxGraphModel>
  </diagram>
</mxfile>
